# xmcd CD database file
#
# Track frame offsets:
#	150
#	13227
#	26405
#	35409
#	44336
#	56057
#	67779
#	78006
#	88226
#	107061
#	125939
#	139752
#	153566
#	166322
#	179085
#	193916
#	208743
#	221374
#	234054
#	248898
#
# Disc length: 3517 seconds
#
# Revision: 0
# Processed by: cddbd v1.5.2PL0 Copyright (c) Steve Scherf et al.
# Submitted via: CDex 1.70beta2
#
DISCID=1b0dbb14
DTITLE=SAX&BRASS magazine - ブラスバンド名曲50選
DYEAR=2008
DGENRE=Jazz
TTITLE0=イン・ザ・ムード
TTITLE1=イン・ザ・ムード-カラオケ
TTITLE2=キャラバン
TTITLE3=キャラバン-カラオケ
TTITLE4=この素晴らしき世界
TTITLE5=この素晴らしき世界-カラオケ
TTITLE6=雨に濡れても
TTITLE7=雨に濡れても-カラオケ
TTITLE8=ルパン三世のテーマ'80
TTITLE9=ルパン三世のテーマ'80-カラオケ
TTITLE10=ウィ・アー・オール・アローン
TTITLE11=ウィ・アー・オール・アローン-カラオケ
TTITLE12=トップ・オブ・ザ・ワールド
TTITLE13=トップ・オブ・ザ・ワールド-カラオケ
TTITLE14=TRUTH
TTITLE15=TRUTH-カラオケ
TTITLE16=セプテンバー
TTITLE17=セプテンバー-カラオケ
TTITLE18=チキン
TTITLE19=チキン-カラオケ
EXTD=YEAR: 2008
EXTT0=
EXTT1=
EXTT2=
EXTT3=
EXTT4=
EXTT5=
EXTT6=
EXTT7=
EXTT8=
EXTT9=
EXTT10=
EXTT11=
EXTT12=
EXTT13=
EXTT14=
EXTT15=
EXTT16=
EXTT17=
EXTT18=
EXTT19=
PLAYORDER=
